<svg viewBox="0 0 350 226" version="1.1" xmlns="http://www.w3.org/2000/svg" xmlns:xlink="http://www.w3.org/1999/xlink">
    <defs>
        <path d="M0,0 L275,0 L275,74 C275,76.7614237 272.761424,79 270,79 L5,79 C2.23857625,79 3.38176876e-16,76.7614237 0,74 L0,0 L0,0 Z" id="path-megamenu"/>
        <filter x="-1.8%" y="-5.1%" width="103.6%" height="112.7%" filterUnits="objectBoundingBox" id="filter-2">
            <feOffset dx="0" dy="1" in="SourceAlpha" result="shadowOffsetOuter1"/>
            <feGaussianBlur stdDeviation="1.5" in="shadowOffsetOuter1" result="shadowBlurOuter1"/>
            <feColorMatrix values="0 0 0 0 0   0 0 0 0 0   0 0 0 0 0  0 0 0 0.0821678322 0" type="matrix" in="shadowBlurOuter1"/>
        </filter>
    </defs>
    <g id="Page-1" stroke="none" stroke-width="1" fill="none" fill-rule="evenodd">
        <g id="dropdown">
            <g>
                <path d="M0,17 L350,17 L350,222 C350,224.209139 348.209139,226 346,226 L4,226 C1.790861,226 2.705415e-16,224.209139 0,222 L0,17 L0,17 Z" id="Rectangle-4" fill="#E3EBFF"/>
                <rect id="Rectangle" fill="#EEF3FF" x="32" y="40" width="286" height="200"/>
                <path d="M4,0 L346,0 C348.209139,-4.05812251e-16 350,1.790861 350,4 L350,21 L350,21 L0,21 L0,4 C-2.705415e-16,1.790861 1.790861,4.05812251e-16 4,0 Z" id="Rectangle" fill="#EBF1FF"/>
                <g id="Group-3" opacity="0.629162016" transform="translate(0, 20)">
                    <rect id="Rectangle-3" fill="#428EF7" x="0" y="0" width="350" height="26"/>
                    <g id="Group-9" transform="translate(15, 9)">
                        <rect id="Rectangle-6-Copy-2" fill="#9EC7FF" x="41" y="0" width="23" height="8" rx="2"/>
                        <rect id="Rectangle-6-Copy-4" fill="#9EC7FF" x="118" y="0" width="25" height="8" rx="2"/>
                        <rect id="Rectangle-6-Copy" fill="#9EC7FF" x="0" y="0" width="25" height="8" rx="2"/>
                        <rect id="Rectangle-6-Copy-3" fill="#9EC7FF" x="79" y="0" width="23" height="8" rx="2"/>
                    </g>
                </g>
                <path d="M0,0 L350,0 L350,222 C350,224.209139 348.209139,226 346,226 L4,226 C1.790861,226 2.705415e-16,224.209139 0,222 L0,21 L0,21 Z" id="Rectangle-4" fill-opacity="0.346372378" fill="#000000" style="z-index: 1;"/>

                <g id="Group-3" opacity="1" transform="translate(0, 20)">
                    <g id="Group-9" transform="translate(15, 9)">
                        <rect id="Rectangle-6-Copy-5" fill="#FFFFFF" x="159" y="0" width="25" height="8" rx="2"/>
                    </g>
                </g>
                <g id="Group-6" transform="translate(10, 46)">
                    <g id="Group-7">
                        <g id="Group-2">
                            <g id="Rectangle-7">
                                <use fill="black" fill-opacity="1" filter="url(#filter-2)" xlink:href="#path-megamenu"/>
                                <use fill="#FFFFFF" fill-rule="evenodd" xlink:href="#path-megamenu"/>
                            </g>
                            <path d="M247,65 C247.552285,65 248,65.4477153 248,66 L248,69 C248,69.5522847 247.552285,70 247,70 L211,70 C210.447715,70 210,69.5522847 210,69 L210,66 C210,65.4477153 210.447715,65 211,65 L247,65 Z M255,51 C255.552285,51 256,51.4477153 256,52 L256,55 C256,55.5522847 255.552285,56 255,56 L211,56 C210.447715,56 210,55.5522847 210,55 L210,52 C210,51.4477153 210.447715,51 211,51 L255,51 Z M260,38 C260.552285,38 261,38.4477153 261,39 L261,42 C261,42.5522847 260.552285,43 260,43 L211,43 C210.447715,43 210,42.5522847 210,42 L210,39 C210,38.4477153 210.447715,38 211,38 L260,38 Z M260,24 C260.552285,24 261,24.4477153 261,25 L261,28 C261,28.5522847 260.552285,29 260,29 L211,29 C210.447715,29 210,28.5522847 210,28 L210,25 C210,24.4477153 210.447715,24 211,24 L260,24 Z M260,10 C260.552285,10 261,10.4477153 261,11 L261,14 C261,14.5522847 260.552285,15 260,15 L211,15 C210.447715,15 210,14.5522847 210,14 L210,11 C210,10.4477153 210.447715,10 211,10 L260,10 Z" id="Combined-Shape" fill="#6EABFF" opacity="0.553455171"/>
                            <path d="M194,65 C194.552285,65 195,65.4477153 195,66 L195,69 C195,69.5522847 194.552285,70 194,70 L145,70 C144.447715,70 144,69.5522847 144,69 L144,66 C144,65.4477153 144.447715,65 145,65 L194,65 Z M194,51 C194.552285,51 195,51.4477153 195,52 L195,55 C195,55.5522847 194.552285,56 194,56 L145,56 C144.447715,56 144,55.5522847 144,55 L144,52 C144,51.4477153 144.447715,51 145,51 L194,51 Z M194,38 C194.552285,38 195,38.4477153 195,39 L195,42 C195,42.5522847 194.552285,43 194,43 L145,43 C144.447715,43 144,42.5522847 144,42 L144,39 C144,38.4477153 144.447715,38 145,38 L194,38 Z M194,24 C194.552285,24 195,24.4477153 195,25 L195,28 C195,28.5522847 194.552285,29 194,29 L145,29 C144.447715,29 144,28.5522847 144,28 L144,25 C144,24.4477153 144.447715,24 145,24 L194,24 Z M194,10 C194.552285,10 195,10.4477153 195,11 L195,14 C195,14.5522847 194.552285,15 194,15 L145,15 C144.447715,15 144,14.5522847 144,14 L144,11 C144,10.4477153 144.447715,10 145,10 L194,10 Z" id="Combined-Shape-Copy" fill="#6EABFF" opacity="0.553455171"/>
                            <path d="M115,65 C115.552285,65 116,65.4477153 116,66 L116,69 C116,69.5522847 115.552285,70 115,70 L79,70 C78.4477153,70 78,69.5522847 78,69 L78,66 C78,65.4477153 78.4477153,65 79,65 L115,65 Z M128,51 C128.552285,51 129,51.4477153 129,52 L129,55 C129,55.5522847 128.552285,56 128,56 L79,56 C78.4477153,56 78,55.5522847 78,55 L78,52 C78,51.4477153 78.4477153,51 79,51 L128,51 Z M128,38 C128.552285,38 129,38.4477153 129,39 L129,42 C129,42.5522847 128.552285,43 128,43 L79,43 C78.4477153,43 78,42.5522847 78,42 L78,39 C78,38.4477153 78.4477153,38 79,38 L128,38 Z M128,24 C128.552285,24 129,24.4477153 129,25 L129,28 C129,28.5522847 128.552285,29 128,29 L79,29 C78.4477153,29 78,28.5522847 78,28 L78,25 C78,24.4477153 78.4477153,24 79,24 L128,24 Z M128,10 C128.552285,10 129,10.4477153 129,11 L129,14 C129,14.5522847 128.552285,15 128,15 L79,15 C78.4477153,15 78,14.5522847 78,14 L78,11 C78,10.4477153 78.4477153,10 79,10 L128,10 Z" id="Combined-Shape-Copy-2" fill="#6EABFF" opacity="0.553455171"/>
                            <path d="M62,65 C62.5522847,65 63,65.4477153 63,66 L63,69 C63,69.5522847 62.5522847,70 62,70 L13,70 C12.4477153,70 12,69.5522847 12,69 L12,66 C12,65.4477153 12.4477153,65 13,65 L62,65 Z M62,51 C62.5522847,51 63,51.4477153 63,52 L63,55 C63,55.5522847 62.5522847,56 62,56 L13,56 C12.4477153,56 12,55.5522847 12,55 L12,52 C12,51.4477153 12.4477153,51 13,51 L62,51 Z M62,38 C62.5522847,38 63,38.4477153 63,39 L63,42 C63,42.5522847 62.5522847,43 62,43 L13,43 C12.4477153,43 12,42.5522847 12,42 L12,39 C12,38.4477153 12.4477153,38 13,38 L62,38 Z M62,24 C62.5522847,24 63,24.4477153 63,25 L63,28 C63,28.5522847 62.5522847,29 62,29 L13,29 C12.4477153,29 12,28.5522847 12,28 L12,25 C12,24.4477153 12.4477153,24 13,24 L62,24 Z M62,10 C62.5522847,10 63,10.4477153 63,11 L63,14 C63,14.5522847 62.5522847,15 62,15 L13,15 C12.4477153,15 12,14.5522847 12,14 L12,11 C12,10.4477153 12.4477153,10 13,10 L62,10 Z" id="Combined-Shape-Copy-3" fill="#6EABFF" opacity="0.553455171"/>
                        </g>
                    </g>
                </g>
            </g>
        </g>
    </g>
</svg>
