<svg viewBox="0 0 350 226" version="1.1" xmlns="http://www.w3.org/2000/svg" xmlns:xlink="http://www.w3.org/1999/xlink">
    <defs xmlns="http://www.w3.org/2000/svg">
        <path d="M0,0 L63,0 L63,74 C63,76.7614237 60.7614237,79 58,79 L5,79 C2.23857625,79 3.38176876e-16,76.7614237 0,74 L0,0 L0,0 Z" id="path-1"/>
        <filter x="-11.1%" y="-6.3%" width="122.2%" height="117.7%" filterUnits="objectBoundingBox" id="filter-2">
            <feOffset dx="0" dy="2" in="SourceAlpha" result="shadowOffsetOuter1"/>
            <feGaussianBlur stdDeviation="2" in="shadowOffsetOuter1" result="shadowBlurOuter1"/>
            <feColorMatrix values="0 0 0 0 0   0 0 0 0 0   0 0 0 0 0  0 0 0 0.140952797 0" type="matrix" in="shadowBlurOuter1"/>
        </filter>
        <path d="M0,0 L113,0 C115.209139,-4.05812251e-16 117,1.790861 117,4 L117,90 C117,92.7614237 114.761424,95 112,95 L5,95 C2.23857625,95 3.38176876e-16,92.7614237 0,90 L0,0 L0,0 Z" id="path-3"/>
        <filter x="-6.0%" y="-5.3%" width="112.0%" height="114.7%" filterUnits="objectBoundingBox" id="filter-4">
            <feOffset dx="0" dy="2" in="SourceAlpha" result="shadowOffsetOuter1"/>
            <feGaussianBlur stdDeviation="2" in="shadowOffsetOuter1" result="shadowBlurOuter1"/>
            <feColorMatrix values="0 0 0 0 0   0 0 0 0 0   0 0 0 0 0  0 0 0 0.140952797 0" type="matrix" in="shadowBlurOuter1"/>
        </filter>
    </defs>
    <g id="Page-1" stroke="none" stroke-width="1" fill="none" fill-rule="evenodd">
        <g id="navbar">
            <path d="M0,17 L350,17 L350,222 C350,224.209139 348.209139,226 346,226 L4,226 C1.790861,226 2.705415e-16,224.209139 0,222 L0,17 L0,17 Z" id="Rectangle-1" fill="#E3EBFF"></path>
            <rect id="Rectangle-2" fill="#EEF3FF" x="32" y="34" width="286" height="192"></rect>
            <path d="M4,0 L346,0 C348.209139,-4.05812251e-16 350,1.790861 350,4 L350,21 L350,21 L0,21 L0,4 C-2.705415e-16,1.790861 1.790861,4.05812251e-16 4,0 Z" id="Rectangle-3" fill="#EBF1FF"></path>
            <g id="Group-3" transform="translate(0.000000, 20.000000)">
                <rect id="Rectangle-4" fill="#428EF7" x="0" y="0" width="350" height="26"></rect>
                <g id="Group-9" transform="translate(15.000000, 9.000000)">
                    <rect id="Rectangle-5" fill="#9EC7FF" x="0" y="0" width="25" height="8" rx="2"></rect>
                    <rect id="Rectangle-6" fill="#9EC7FF" x="41" y="0" width="23" height="8" rx="2"></rect>
                    <rect id="Rectangle-7" fill="#9EC7FF" x="118" y="0" width="25" height="8" rx="2"></rect>
                    <rect id="Rectangle-8" fill="#9EC7FF" x="79" y="0" width="23" height="8" rx="2"></rect>
                    <rect id="Rectangle-9" fill="#E0EDFF" x="159" y="0" width="25" height="8" rx="2"></rect>
                </g>
            </g>
            <g xmlns="http://www.w3.org/2000/svg" id="Group-6" opacity="0.724167597" transform="translate(10.000000, 46.000000)">
                <g id="Group-7">
                    <g id="Group-2">
                        <g id="Rectangle-7">
                            <use fill="black" fill-opacity="1" filter="url(#filter-2)" xmlns:xlink="http://www.w3.org/1999/xlink" xlink:href="#path-1"/>
                            <use fill="#6EABFF" fill-rule="evenodd" xmlns:xlink="http://www.w3.org/1999/xlink" xlink:href="#path-1"/>
                        </g>
                        <rect id="Rectangle-6-Copy-8" fill="#A7CCFF" x="6" y="22" width="50" height="5" rx="1"/>
                        <rect id="Rectangle-6-Copy-10" fill="#E0EDFF" x="6" y="49" width="50" height="5" rx="1"/>
                        <rect id="Rectangle-6-Copy-7" fill="#A7CCFF" x="6" y="8" width="50" height="5" rx="1"/>
                        <rect id="Rectangle-6-Copy-9" fill="#A7CCFF" x="6" y="36" width="50" height="5" rx="1"/>
                        <rect id="Rectangle-6-Copy-11" fill="#A7CCFF" x="6" y="63" width="36" height="5" rx="1"/>
                    </g>
                </g>
            </g>
            <g xmlns="http://www.w3.org/2000/svg" id="Group-6-Copy-4" opacity="0.724167597" transform="translate(75.000000, 46.000000)">
                <g id="Group-7">
                    <g id="Group-2">
                        <g id="Rectangle-7">
                            <use fill="black" fill-opacity="1" filter="url(#filter-4)" xmlns:xlink="http://www.w3.org/1999/xlink" xlink:href="#path-3"/>
                            <use fill="#6EABFF" fill-rule="evenodd" xmlns:xlink="http://www.w3.org/1999/xlink" xlink:href="#path-3"/>
                        </g>
                        <path d="M54,82 C54.5522847,82 55,82.4477153 55,83 L55,86 C55,86.5522847 54.5522847,87 54,87 L8,87 C7.44771525,87 7,86.5522847 7,86 L7,83 C7,82.4477153 7.44771525,82 8,82 L54,82 Z M54,70 C54.5522847,70 55,70.4477153 55,71 L55,74 C55,74.5522847 54.5522847,75 54,75 L8,75 C7.44771525,75 7,74.5522847 7,74 L7,71 C7,70.4477153 7.44771525,70 8,70 L54,70 Z M54,58 C54.5522847,58 55,58.4477153 55,59 L55,62 C55,62.5522847 54.5522847,63 54,63 L8,63 C7.44771525,63 7,62.5522847 7,62 L7,59 C7,58.4477153 7.44771525,58 8,58 L54,58 Z M54,46 C54.5522847,46 55,46.4477153 55,47 L55,50 C55,50.5522847 54.5522847,51 54,51 L8,51 C7.44771525,51 7,50.5522847 7,50 L7,47 C7,46.4477153 7.44771525,46 8,46 L54,46 Z M54,34 C54.5522847,34 55,34.4477153 55,35 L55,38 C55,38.5522847 54.5522847,39 54,39 L8,39 C7.44771525,39 7,38.5522847 7,38 L7,35 C7,34.4477153 7.44771525,34 8,34 L54,34 Z M54,21 C54.5522847,21 55,21.4477153 55,22 L55,25 C55,25.5522847 54.5522847,26 54,26 L8,26 C7.44771525,26 7,25.5522847 7,25 L7,22 C7,21.4477153 7.44771525,21 8,21 L54,21 Z M54,8 C54.5522847,8 55,8.44771525 55,9 L55,12 C55,12.5522847 54.5522847,13 54,13 L8,13 C7.44771525,13 7,12.5522847 7,12 L7,9 C7,8.44771525 7.44771525,8 8,8 L54,8 Z" id="Combined-Shape" fill="#A7CCFF"/>
                        <path d="M95,70 C95.5522847,70 96,70.4477153 96,71 L96,74 C96,74.5522847 95.5522847,75 95,75 L62,75 C61.4477153,75 61,74.5522847 61,74 L61,71 C61,70.4477153 61.4477153,70 62,70 L95,70 Z M108,58 C108.552285,58 109,58.4477153 109,59 L109,62 C109,62.5522847 108.552285,63 108,63 L62,63 C61.4477153,63 61,62.5522847 61,62 L61,59 C61,58.4477153 61.4477153,58 62,58 L108,58 Z M108,45 C108.552285,45 109,45.4477153 109,46 L109,49 C109,49.5522847 108.552285,50 108,50 L62,50 C61.4477153,50 61,49.5522847 61,49 L61,46 C61,45.4477153 61.4477153,45 62,45 L108,45 Z M108,33 C108.552285,33 109,33.4477153 109,34 L109,37 C109,37.5522847 108.552285,38 108,38 L62,38 C61.4477153,38 61,37.5522847 61,37 L61,34 C61,33.4477153 61.4477153,33 62,33 L108,33 Z M108,21 C108.552285,21 109,21.4477153 109,22 L109,25 C109,25.5522847 108.552285,26 108,26 L62,26 C61.4477153,26 61,25.5522847 61,25 L61,22 C61,21.4477153 61.4477153,21 62,21 L108,21 Z M108,8 C108.552285,8 109,8.44771525 109,9 L109,12 C109,12.5522847 108.552285,13 108,13 L62,13 C61.4477153,13 61,12.5522847 61,12 L61,9 C61,8.44771525 61.4477153,8 62,8 L108,8 Z" id="Combined-Shape-Copy-7" fill="#A7CCFF"/>
                    </g>
                </g>
            </g>
        </g>
    </g>
</svg>